<svg width="25" height="25" viewBox="0 0 25 25" fill="none" xmlns="http://www.w3.org/2000/svg">
<path d="M23.1608 4.1666C23.1608 6.03638 21.6452 7.55215 19.7754 7.55215C17.9056 7.55215 16.39 6.03638 16.39 4.1666C16.39 2.29702 17.9056 0.78125 19.7754 0.78125C21.6452 0.78125 23.1608 2.29702 23.1608 4.1666V4.1666Z" fill="#fff"/>
<path d="M23.1608 20.8334C23.1608 22.703 21.6452 24.2187 19.7754 24.2187C17.9056 24.2187 16.39 22.703 16.39 20.8334C16.39 18.9636 17.9056 17.4478 19.7754 17.4478C21.6452 17.4478 23.1608 18.9636 23.1608 20.8334V20.8334Z" fill="#fff"/>
<path d="M8.57754 12.5C8.57754 14.3698 7.06177 15.8854 5.19199 15.8854C3.32241 15.8854 1.80664 14.3698 1.80664 12.5C1.80664 10.6302 3.32241 9.11465 5.19199 9.11465C7.06177 9.11465 8.57754 10.6302 8.57754 12.5Z" fill="#fff"/>
<path d="M5.17578 12.5L19.7754 4.15039" stroke="#fff" stroke-width="2"/>
<line x1="19.8538" y1="21.3206" x2="5.49248" y2="12.8616" stroke="#fff" stroke-width="2"/>
</svg>
